<svg width="64" height="64" viewBox="0 0 64 64" fill="none" xmlns="http://www.w3.org/2000/svg">
<circle cx="32" cy="32" r="32" fill="url(#paint0_linear_144143_184228)"/>
<path d="M41.3333 22.6667H38.6667V20H25.3333V22.6667H22.6667C21.2 22.6667 20 23.8667 20 25.3333V26.6667C20 30.0667 22.56 32.84 25.8533 33.2533C26.6933 35.2533 28.4933 36.76 30.6667 37.2V41.3333H25.3333V44H38.6667V41.3333H33.3333V37.2C35.5067 36.76 37.3067 35.2533 38.1467 33.2533C41.44 32.84 44 30.0667 44 26.6667V25.3333C44 23.8667 42.8 22.6667 41.3333 22.6667ZM22.6667 26.6667V25.3333H25.3333V30.4267C23.7867 29.8667 22.6667 28.4 22.6667 26.6667ZM32 34.6667C29.8 34.6667 28 32.8667 28 30.6667V22.6667H36V30.6667C36 32.8667 34.2 34.6667 32 34.6667ZM41.3333 26.6667C41.3333 28.4 40.2133 29.8667 38.6667 30.4267V25.3333H41.3333V26.6667Z" fill="white"/>
<defs>
<linearGradient id="paint0_linear_144143_184228" x1="12.8433" y1="5.47166" x2="46.6931" y2="61.3435" gradientUnits="userSpaceOnUse">
<stop stop-color="#F82C2C"/>
<stop offset="0.21875" stop-color="#EC874E"/>
<stop offset="0.385417" stop-color="#E78B20"/>
<stop offset="0.770833" stop-color="#FF2633"/>
<stop offset="1" stop-color="#FF1818"/>
</linearGradient>
</defs>
</svg>
