<svg width="64" height="64" viewBox="0 0 64 64" fill="none" xmlns="http://www.w3.org/2000/svg">
<circle cx="32" cy="32" r="32" fill="url(#paint0_linear_144143_184256)"/>
<path d="M34 23.3333C35.4667 23.3333 36.6667 22.1333 36.6667 20.6667C36.6667 19.2 35.4667 18 34 18C32.5333 18 31.3333 19.2 31.3333 20.6667C31.3333 22.1333 32.5333 23.3333 34 23.3333ZM42.6667 32.6667V46.6667H41.3333V32.6667C41.3333 32.2933 41.04 32 40.6667 32C40.2933 32 40 32.2933 40 32.6667V34H38.6667V33.08C36.72 32.5733 35.0667 31.36 33.9867 29.72C33.5733 30.88 33.3333 32.0933 33.3333 33.3333C33.3333 33.64 33.36 33.9467 33.3733 34.2533L36 38V46.6667H33.3333V40L30.96 36.6133L30.6667 41.3333L26.6667 46.6667L24.5333 45.0667L28 40.44V33.3333C28 31.8 28.24 30.28 28.6667 28.8133L26.6667 29.9467V34.6667H24V28.4L31.2 24.3067V24.32C31.9867 23.9067 32.96 23.88 33.7867 24.36C34.2667 24.64 34.6267 25.04 34.8533 25.4933L35.9067 27.72C36.7733 29.4667 38.5867 30.6667 40.6667 30.6667C41.7733 30.6667 42.6667 31.56 42.6667 32.6667Z" fill="white"/>
<defs>
<linearGradient id="paint0_linear_144143_184256" x1="12.8433" y1="5.47166" x2="46.6931" y2="61.3435" gradientUnits="userSpaceOnUse">
<stop stop-color="#F82C2C"/>
<stop offset="0.21875" stop-color="#EC874E"/>
<stop offset="0.385417" stop-color="#E78B20"/>
<stop offset="0.770833" stop-color="#FF2633"/>
<stop offset="1" stop-color="#FF1818"/>
</linearGradient>
</defs>
</svg>
