<svg width="28" height="23" viewBox="0 0 28 23" fill="none" xmlns="http://www.w3.org/2000/svg">
<path d="M0.414203 10.565C3.21978 9.01958 6.35158 7.72978 9.27778 6.43338C14.312 4.30999 19.3662 2.22338 24.4714 0.280785C25.4647 -0.0502153 27.2494 -0.373915 27.4244 1.09808C27.3286 3.18168 26.9344 5.25309 26.664 7.32448C25.9777 11.8797 25.1845 16.4193 24.411 20.9595C24.1445 22.4718 22.25 23.2547 21.0378 22.2869C18.1246 20.3191 15.189 18.3705 12.313 16.3571C11.3709 15.3998 12.2445 14.0251 13.0859 13.3415C15.4853 10.9769 18.0299 8.96789 20.3039 6.48108C20.9173 4.99978 19.1049 6.24818 18.5071 6.63068C15.2223 8.89429 12.0179 11.2961 8.55468 13.2855C6.78568 14.2593 4.72388 13.4271 2.95568 12.8837C1.37026 12.2273 -0.952956 11.566 0.414044 10.5651L0.414203 10.565Z" fill="white"/>
</svg>
