<svg width="19" height="23" viewBox="0 0 19 23" fill="none" xmlns="http://www.w3.org/2000/svg">
<path d="M15.6203 8H13.5003V1.33333C13.5003 0.6 12.9003 0 12.167 0H6.83366C6.10033 0 5.50033 0.6 5.50033 1.33333V8H3.38033C2.19366 8 1.59366 9.44 2.43366 10.28L8.55366 16.4C9.07366 16.92 9.91366 16.92 10.4337 16.4L16.5537 10.28C17.3937 9.44 16.807 8 15.6203 8ZM0.166992 21.3333C0.166992 22.0667 0.766992 22.6667 1.50033 22.6667H17.5003C18.2337 22.6667 18.8337 22.0667 18.8337 21.3333C18.8337 20.6 18.2337 20 17.5003 20H1.50033C0.766992 20 0.166992 20.6 0.166992 21.3333Z" fill="#016CFF"/>
</svg>
