<svg width="18" height="18" viewBox="0 0 18 18" fill="none" xmlns="http://www.w3.org/2000/svg">
<path d="M16.231 12.2617L13.691 11.9717C13.081 11.9017 12.481 12.1117 12.051 12.5417L10.211 14.3817C7.38102 12.9417 5.06102 10.6317 3.62102 7.79172L5.47102 5.94172C5.90102 5.51172 6.11102 4.91172 6.04102 4.30172L5.75102 1.78172C5.63102 0.771719 4.78102 0.0117188 3.76102 0.0117188H2.03102C0.901018 0.0117188 -0.0389828 0.951719 0.0310172 2.08172C0.561017 10.6217 7.39102 17.4417 15.921 17.9717C17.051 18.0417 17.991 17.1017 17.991 15.9717V14.2417C18.001 13.2317 17.241 12.3817 16.231 12.2617Z" fill="white"/>
</svg>
